<?xml version="1.0" standalone="no"?>
<!DOCTYPE svg PUBLIC "-//W3C//DTD SVG 20010904//EN"
 "http://www.w3.org/TR/2001/REC-SVG-20010904/DTD/svg10.dtd">
<svg version="1.0" xmlns="http://www.w3.org/2000/svg"
 width="225.000000pt" height="225.000000pt" viewBox="0 0 225.000000 225.000000"
 preserveAspectRatio="xMidYMid meet">

<g transform="translate(0.000000,225.000000) scale(0.100000,-0.100000)"
fill="#000000" stroke="none">
<path d="M1280 1750 c-24 -24 -26 -48 -5 -57 21 -8 55 25 55 54 0 29 -23 30
-50 3z m21 -24 c-11 -27 -24 -37 -16 -11 3 8 7 22 10 31 3 9 8 15 11 12 2 -3
0 -17 -5 -32z"/>
<path d="M846 1719 c-14 -17 -26 -35 -26 -40 0 -5 -10 -9 -21 -9 -12 0 -40
-17 -63 -37 -23 -21 -57 -50 -76 -65 -29 -22 -33 -29 -24 -45 6 -10 34 -24 63
-32 31 -8 51 -19 51 -28 0 -18 62 -75 76 -69 14 5 74 -117 74 -152 0 -15 4
-32 9 -38 5 -5 12 -30 15 -55 5 -35 3 -49 -9 -59 -12 -10 -15 -10 -16 1 0 8
-7 1 -15 -16 -10 -20 -13 -23 -11 -9 3 12 1 28 -4 35 -7 11 -9 10 -9 -4 0 -10
-4 -15 -10 -12 -5 3 -10 -2 -10 -12 -1 -14 -4 -13 -15 7 -12 22 -14 22 -15 6
0 -19 0 -19 -13 -1 -13 17 -14 17 -13 -1 1 -10 -3 -19 -9 -19 -5 0 -10 9 -9
19 1 17 0 17 -11 3 -14 -19 -31 -10 -44 23 -6 15 -10 18 -10 9 -1 -9 -9 -24
-20 -33 -18 -16 -18 -16 -14 11 5 27 5 27 -11 8 -8 -11 -16 -29 -16 -40 -1
-15 -5 -12 -21 15 -15 28 -18 30 -14 10 6 -25 6 -25 -11 -5 -16 20 -16 19 -10
-5 7 -23 6 -24 -7 -7 -11 14 -16 15 -20 5 -3 -7 -6 -3 -6 9 -1 25 -21 43 -21
19 0 -9 -4 -16 -9 -16 -5 0 -12 -8 -14 -17 -3 -10 -6 -2 -7 17 -1 19 -4 28 -7
20 -2 -8 -6 -21 -9 -28 -2 -7 -8 -10 -14 -7 -7 4 -6 14 1 28 l12 22 -23 -20
-23 -20 8 24 c5 15 4 21 -3 17 -6 -3 -13 0 -15 6 -3 7 -3 -3 0 -22 3 -24 2
-31 -5 -21 -12 17 -24 -1 -16 -26 5 -15 4 -15 -5 -3 -6 8 -11 33 -12 55 -2 39
-2 39 -8 -10 l-7 -50 -8 45 c-8 40 -10 42 -17 20 -4 -14 -7 -58 -8 -97 l-1
-73 805 0 805 0 6 25 c3 14 -1 37 -10 56 -9 18 -16 39 -17 48 -1 9 -5 5 -10
-9 -6 -18 -7 -12 -4 25 3 35 2 44 -4 30 -5 -11 -11 -33 -12 -50 -2 -24 -3 -22
-9 15 -5 35 -7 38 -9 15 -1 -16 -6 -37 -12 -45 -9 -13 -10 -13 -8 0 1 8 1 22
0 30 -1 13 -2 13 -11 0 -8 -12 -10 -8 -11 15 -1 25 -2 26 -6 7 -3 -15 -10 -22
-18 -18 -8 3 -16 2 -18 -2 -2 -4 -2 -1 0 6 2 8 0 19 -4 25 -4 7 -9 3 -13 -12
-7 -32 -26 -38 -33 -10 -9 32 -32 17 -31 -20 1 -17 -2 -28 -7 -25 -5 3 -9 13
-10 22 -1 11 -4 8 -9 -8 -5 -14 -8 -18 -9 -9 -2 27 -28 44 -46 29 -13 -10 -15
-9 -15 11 0 18 -3 20 -9 10 -5 -8 -7 -21 -4 -30 4 -11 0 -10 -11 4 -16 19 -16
19 -11 -10 l6 -30 -16 28 c-18 31 -27 36 -19 10 3 -10 -1 -7 -10 7 -14 23 -21
124 -7 102 3 -5 14 -8 24 -6 10 1 21 -4 24 -13 8 -21 24 6 17 30 -8 25 5 21
16 -5 7 -17 8 -11 5 25 -2 27 -9 54 -14 61 -9 11 -33 148 -28 166 4 17 -19 49
-53 72 -22 16 -43 28 -48 29 -4 0 -13 5 -19 11 -9 7 -17 7 -27 -1 -10 -9 -19
-1 -42 35 -33 52 -79 83 -98 64 -8 -8 -7 -10 6 -5 13 5 15 2 11 -14 -6 -25
-22 -19 -53 24 -14 18 -36 40 -50 48 -25 15 -26 14 -49 -26 -16 -28 -19 -37
-8 -29 9 8 19 22 22 33 8 25 25 25 25 0 0 -11 -12 -29 -27 -40 l-26 -21 -22
20 c-29 27 -31 26 -30 -17 0 -40 -10 -45 -49 -28 -18 8 -18 10 7 29 l26 21
-62 -3 c-34 -2 -69 -9 -77 -15 -9 -7 -8 -4 3 9 26 31 21 36 -15 14 -33 -20
-84 -28 -74 -11 4 5 0 11 -6 14 -10 3 -7 15 9 46 26 49 23 51 -11 10z m-56
-109 c0 -5 -7 -10 -16 -10 -8 0 -12 5 -9 10 3 6 10 10 16 10 5 0 9 -4 9 -10z
m200 -35 c0 -8 -7 -15 -16 -15 -14 0 -14 3 -4 15 7 8 14 15 16 15 2 0 4 -7 4
-15z m40 -385 c1 25 20 -11 20 -37 0 -13 5 -22 12 -20 16 3 19 -46 4 -55 -16
-11 -26 -10 -26 3 0 5 4 8 9 5 5 -4 7 3 4 14 -5 19 -6 19 -24 -3 l-18 -22 -1
24 c0 24 0 24 -15 5 -8 -10 -15 -28 -15 -39 -1 -20 -1 -20 -12 -1 -8 15 -8 21
0 24 7 2 9 8 6 14 -4 6 4 30 17 54 15 29 26 39 31 31 6 -9 8 -8 8 3z m460 -67
c0 -13 -4 -23 -10 -23 -5 0 -10 -8 -11 -17 -1 -10 -6 -4 -11 14 -6 18 -7 48
-3 70 l8 38 13 -30 c7 -16 13 -40 14 -52z m-200 42 c11 10 20 13 20 7 0 -13
21 -12 31 1 3 5 14 0 24 -10 16 -15 18 -16 13 -1 -4 9 -1 19 7 22 32 12 28
-76 -4 -93 -11 -7 -21 -5 -33 5 -12 12 -18 12 -24 3 -4 -8 -3 -10 4 -5 7 4 12
2 12 -3 0 -6 -6 -11 -14 -11 -8 0 -17 -8 -19 -17 -3 -13 -5 -11 -7 7 -1 23 -2
23 -10 5 -7 -17 -9 -14 -10 15 l-2 35 -7 -30 -6 -29 -17 25 c-13 21 -14 32 -5
62 11 33 13 34 20 15 7 -20 8 -20 27 -3z m-9 2 c-10 -9 -11 -8 -5 6 3 10 9 15
12 12 3 -3 0 -11 -7 -18z m-142 -22 c1 17 3 17 11 5 5 -8 10 -10 10 -5 0 6 5
3 10 -5 8 -12 10 -12 10 5 0 15 2 17 9 6 7 -11 9 -11 13 0 2 7 9 9 16 5 8 -5
10 -16 6 -29 -4 -12 -7 -35 -6 -52 0 -16 -2 -24 -4 -17 -3 6 -12 12 -20 12 -8
0 -14 6 -15 13 0 10 -2 10 -6 0 -7 -18 -23 -16 -23 3 0 8 -7 22 -15 30 -8 9
-15 25 -14 37 1 20 2 20 9 -3 7 -21 8 -22 9 -5z m111 -90 c0 -5 -5 -3 -10 5
-5 8 -10 20 -10 25 0 6 5 3 10 -5 5 -8 10 -19 10 -25z m197 13 c-3 -8 -6 -5
-6 6 -1 11 2 17 5 13 3 -3 4 -12 1 -19z m218 12 c3 -5 1 -10 -4 -10 -6 0 -11
5 -11 10 0 6 2 10 4 10 3 0 8 -4 11 -10z m-128 -22 c-3 -8 -6 -5 -6 6 -1 11 2
17 5 13 3 -3 4 -12 1 -19z m284 -1 c-10 -9 -11 -8 -5 6 3 10 9 15 12 12 3 -3
0 -11 -7 -18z"/>
<path d="M1381 1114 c0 -11 3 -14 6 -6 3 7 2 16 -1 19 -3 4 -6 -2 -5 -13z"/>
<path d="M1186 1097 c3 -10 9 -15 12 -12 3 3 0 11 -7 18 -10 9 -11 8 -5 -6z"/>
<path d="M962 1715 c0 -16 2 -22 5 -12 2 9 2 23 0 30 -3 6 -5 -1 -5 -18z"/>
<path d="M1090 1725 c0 -8 7 -21 16 -30 21 -21 44 -3 28 22 -13 20 -44 26 -44
8z m33 -15 c3 -11 1 -18 -4 -14 -5 3 -9 12 -9 20 0 20 7 17 13 -6z"/>
<path d="M1417 1633 c-12 -11 -8 -23 8 -23 8 0 15 7 15 15 0 16 -12 20 -23 8z"/>
<path d="M1720 1190 c0 -5 7 -10 16 -10 8 0 12 5 9 10 -3 6 -10 10 -16 10 -5
0 -9 -4 -9 -10z"/>
<path d="M450 1180 c0 -5 4 -10 9 -10 6 0 13 5 16 10 3 6 -1 10 -9 10 -9 0
-16 -4 -16 -10z"/>
<path d="M685 1171 c-3 -5 -1 -12 5 -16 5 -3 10 1 10 9 0 18 -6 21 -15 7z"/>
<path d="M1721 1144 c0 -11 3 -14 6 -6 3 7 2 16 -1 19 -3 4 -6 -2 -5 -13z"/>
<path d="M353 843 c-19 -7 -16 -20 16 -67 16 -23 31 -58 33 -77 2 -23 9 -35
21 -37 13 -3 17 3 17 29 0 19 13 52 31 81 29 45 33 78 9 78 -6 0 -20 -16 -31
-35 -12 -19 -24 -35 -28 -35 -3 0 -15 16 -25 35 -20 36 -22 37 -43 28z"/>
<path d="M553 838 c-6 -7 -25 -46 -43 -86 -26 -58 -31 -75 -21 -85 10 -9 16
-7 31 11 24 30 86 31 95 2 7 -23 33 -27 41 -6 6 16 -71 176 -85 176 -5 0 -13
-6 -18 -12z m27 -89 c0 -5 -7 -9 -15 -9 -9 0 -12 6 -9 15 6 15 24 11 24 -6z"/>
<path d="M687 844 c-4 -4 -7 -47 -7 -96 0 -80 2 -89 18 -86 11 2 18 14 20 38
l4 34 32 -39 c23 -27 38 -36 49 -32 24 9 21 21 -14 55 l-32 31 32 38 c27 33
29 39 16 52 -13 14 -19 11 -48 -24 l-32 -39 -5 33 c-5 34 -19 48 -33 35z"/>
<path d="M943 831 c-37 -23 -47 -50 -39 -96 12 -60 83 -94 137 -65 14 8 19 21
19 56 l0 45 -37 -3 c-39 -3 -60 -28 -24 -28 14 0 21 -6 21 -20 0 -13 -7 -20
-20 -20 -23 0 -60 33 -60 55 0 17 35 55 51 55 6 0 19 -5 30 -10 27 -15 40 17
14 36 -26 19 -54 17 -92 -5z"/>
<path d="M1119 769 c-22 -45 -38 -87 -35 -95 8 -21 34 -17 41 6 9 30 77 28 98
-2 12 -19 18 -21 28 -10 11 10 6 27 -26 92 -21 43 -45 82 -52 84 -9 4 -27 -22
-54 -75z m65 -14 c4 -10 -1 -15 -16 -15 -17 0 -18 2 -8 15 7 8 14 15 15 15 2
0 5 -7 9 -15z"/>
<path d="M1292 842 c-20 -13 -12 -177 8 -177 8 0 16 10 18 21 5 36 40 37 57 3
9 -16 20 -29 26 -29 16 0 21 27 9 50 -9 16 -9 25 -1 33 18 18 13 62 -9 82 -22
20 -88 30 -108 17z m88 -57 c0 -9 -12 -20 -26 -25 -34 -13 -34 -13 -34 15 0
21 5 25 30 25 20 0 30 -5 30 -15z"/>
<path d="M1457 843 c-16 -4 -17 -15 -15 -91 l3 -87 34 -3 c74 -7 129 46 116
114 -3 19 -16 40 -28 48 -25 17 -83 27 -110 19z m93 -63 c14 -26 5 -57 -21
-71 -34 -18 -49 -4 -49 46 0 43 1 45 30 45 19 0 33 -7 40 -20z"/>
<path d="M1632 841 c-9 -5 -12 -31 -10 -92 l3 -84 68 -3 c62 -3 67 -1 67 18 0
17 -6 20 -50 20 -38 0 -50 4 -50 15 0 10 11 15 35 15 28 0 35 4 35 20 0 16 -7
20 -35 20 -24 0 -35 5 -35 15 0 11 12 15 45 15 32 0 47 5 52 15 3 9 4 18 1 20
-8 9 -114 14 -126 6z"/>
<path d="M1782 753 c3 -73 6 -88 20 -91 14 -3 17 6 20 54 l3 56 40 -56 c56
-79 69 -72 73 37 3 81 1 87 -17 87 -17 0 -20 -8 -23 -51 l-3 -50 -38 50 c-23
32 -45 51 -58 51 -19 0 -20 -5 -17 -87z"/>
<path d="M350 525 c0 -58 12 -85 23 -52 3 9 7 9 20 -1 9 -8 22 -10 28 -6 9 5
7 11 -6 20 -14 11 -16 16 -6 28 16 19 -4 32 -24 16 -13 -11 -15 -7 -15 24 0
20 -4 36 -10 36 -6 0 -10 -28 -10 -65z"/>
<path d="M457 583 c-12 -11 -8 -23 8 -23 8 0 15 7 15 15 0 16 -12 20 -23 8z"/>
<path d="M706 583 c-3 -3 -6 -33 -6 -65 0 -44 4 -58 14 -58 8 0 16 12 18 27 4
39 28 42 28 4 0 -21 5 -31 15 -31 9 0 15 9 15 24 0 40 -11 56 -36 56 -17 0
-24 6 -24 19 0 21 -13 34 -24 24z"/>
<path d="M1407 583 c-4 -3 -7 -15 -7 -25 0 -11 -7 -18 -20 -18 -27 0 -44 -34
-30 -60 8 -14 21 -20 45 -20 l35 0 0 65 c0 60 -6 75 -23 58z m-7 -84 c0 -5 -7
-9 -15 -9 -15 0 -20 12 -9 23 8 8 24 -1 24 -14z"/>
<path d="M1795 582 c-20 -14 -38 -56 -26 -60 6 -2 11 -17 11 -33 0 -16 5 -29
10 -29 6 0 10 14 10 30 0 20 5 30 15 30 20 0 19 10 -2 26 -11 8 -13 13 -5 14
6 0 12 7 12 15 0 16 -9 19 -25 7z"/>
<path d="M521 556 c-14 -36 4 -96 29 -96 21 0 27 15 10 25 -15 10 -12 35 5 35
8 0 15 5 15 10 0 6 -7 10 -15 10 -8 0 -15 6 -15 14 0 26 -20 28 -29 2z"/>
<path d="M1543 565 c-27 -19 -31 -66 -7 -90 20 -19 75 -17 82 4 3 10 -2 12
-21 8 -28 -8 -51 12 -45 40 2 12 13 18 33 18 20 1 30 6 30 15 0 21 -46 24 -72
5z"/>
<path d="M623 539 c-25 -9 -31 -47 -11 -67 17 -17 58 -15 58 3 0 8 -9 15 -20
15 -11 0 -20 7 -20 16 0 11 6 14 20 9 14 -4 20 -2 20 8 0 20 -20 26 -47 16z"/>
<path d="M838 539 c-18 -10 -23 -35 -12 -63 4 -10 18 -16 40 -16 41 0 45 17 7
23 l-28 4 28 2 c21 1 27 6 27 25 0 33 -29 45 -62 25z m39 -25 c-3 -3 -12 -4
-19 -1 -8 3 -5 6 6 6 11 1 17 -2 13 -5z"/>
<path d="M1125 537 c-19 -10 -19 -51 -1 -66 8 -7 27 -11 43 -9 25 3 28 7 28
42 0 36 -2 39 -28 40 -15 1 -34 -2 -42 -7z m37 -32 c0 -5 -5 -11 -11 -13 -6
-2 -11 4 -11 13 0 9 5 15 11 13 6 -2 11 -8 11 -13z"/>
<path d="M1872 534 c-29 -20 -26 -54 7 -70 24 -12 51 -9 51 6 0 5 -10 11 -22
13 l-23 4 23 2 c30 1 40 30 17 47 -24 18 -26 17 -53 -2z m35 -20 c-3 -3 -12
-4 -19 -1 -8 3 -5 6 6 6 11 1 17 -2 13 -5z"/>
<path d="M450 500 c0 -29 4 -40 15 -40 11 0 15 11 15 40 0 29 -4 40 -15 40
-11 0 -15 -11 -15 -40z"/>
<path d="M930 500 c0 -46 26 -58 32 -15 4 33 22 33 26 0 4 -32 32 -33 32 -1 0
45 -10 56 -51 56 -39 0 -39 0 -39 -40z"/>
<path d="M1230 501 c0 -48 15 -54 24 -11 3 17 10 30 16 30 6 0 13 -13 17 -30
8 -43 25 -37 21 8 -3 35 -5 37 -40 40 l-38 3 0 -40z"/>
<path d="M1654 526 c-3 -8 -4 -25 -2 -38 2 -19 10 -24 41 -26 l37 -3 0 40 c0
40 -1 41 -35 41 -22 0 -38 -6 -41 -14z m46 -21 c0 -8 -7 -15 -15 -15 -16 0
-20 12 -8 23 11 12 23 8 23 -8z"/>
</g>
</svg>
